<svg width="20" height="22" viewBox="0 0 20 22" fill="none" xmlns="http://www.w3.org/2000/svg">
<path d="M5 7.5L7 5.5L5 3.5L3 5.5L5 7.5ZM2 13C1.45 13 0.979167 12.8042 0.5875 12.4125C0.195833 12.0208 0 11.55 0 11V2C0 1.45 0.195833 0.979167 0.5875 0.5875C0.979167 0.195833 1.45 0 2 0H18C18.55 0 19.0208 0.195833 19.4125 0.5875C19.8042 0.979167 20 1.45 20 2V11C20 11.55 19.8042 12.0208 19.4125 12.4125C19.0208 12.8042 18.55 13 18 13H14.775C14.875 12.6667 14.9417 12.3333 14.975 12C15.0083 11.6667 15.0083 11.3333 14.975 11H18V2H2V11H5.025C4.99167 11.3333 4.99167 11.6667 5.025 12C5.05833 12.3333 5.125 12.6667 5.225 13H2ZM14.5 6C14.9167 6 15.2708 5.85417 15.5625 5.5625C15.8542 5.27083 16 4.91667 16 4.5C16 4.08333 15.8542 3.72917 15.5625 3.4375C15.2708 3.14583 14.9167 3 14.5 3C14.0833 3 13.7292 3.14583 13.4375 3.4375C13.1458 3.72917 13 4.08333 13 4.5C13 4.91667 13.1458 5.27083 13.4375 5.5625C13.7292 5.85417 14.0833 6 14.5 6ZM3 22V19.9C3 19.3167 3.1625 18.775 3.4875 18.275C3.8125 17.775 4.24167 17.4 4.775 17.15C5.59167 16.7667 6.44167 16.4792 7.325 16.2875C8.20833 16.0958 9.1 16 10 16C10.9 16 11.7917 16.0958 12.675 16.2875C13.5583 16.4792 14.4083 16.7667 15.225 17.15C15.7583 17.4 16.1875 17.775 16.5125 18.275C16.8375 18.775 17 19.3167 17 19.9V22H3ZM5 20H15V19.9C15 19.7 14.9417 19.5167 14.825 19.35C14.7083 19.1833 14.5583 19.0583 14.375 18.975C13.675 18.6583 12.9583 18.4167 12.225 18.25C11.4917 18.0833 10.75 18 10 18C9.25 18 8.50833 18.0833 7.775 18.25C7.04167 18.4167 6.325 18.6583 5.625 18.975C5.44167 19.0583 5.29167 19.1833 5.175 19.35C5.05833 19.5167 5 19.7 5 19.9V20ZM10 15C9.03333 15 8.20833 14.6583 7.525 13.975C6.84167 13.2917 6.5 12.4667 6.5 11.5C6.5 10.5333 6.84167 9.70833 7.525 9.025C8.20833 8.34167 9.03333 8 10 8C10.9667 8 11.7917 8.34167 12.475 9.025C13.1583 9.70833 13.5 10.5333 13.5 11.5C13.5 12.4667 13.1583 13.2917 12.475 13.975C11.7917 14.6583 10.9667 15 10 15ZM10 13C10.4167 13 10.7708 12.8542 11.0625 12.5625C11.3542 12.2708 11.5 11.9167 11.5 11.5C11.5 11.0833 11.3542 10.7292 11.0625 10.4375C10.7708 10.1458 10.4167 10 10 10C9.58333 10 9.22917 10.1458 8.9375 10.4375C8.64583 10.7292 8.5 11.0833 8.5 11.5C8.5 11.9167 8.64583 12.2708 8.9375 12.5625C9.22917 12.8542 9.58333 13 10 13Z" fill="#050506"/>
</svg>
